<svg width="11" height="19" viewBox="0 0 11 19" fill="none" xmlns="http://www.w3.org/2000/svg">
<g clip-path="url(#clip0_139_77)">
<path d="M9.50004 19C9.09963 19 8.72319 18.844 8.43949 18.5608L0.439449 10.5606C0.15623 10.2773 0 9.90056 0 9.49993C0 9.09929 0.156267 8.72256 0.439449 8.43927L8.43949 0.439227C8.72271 0.155896 9.09966 0 9.50004 0C9.90041 0 10.2774 0.155896 10.5606 0.439078C10.8438 0.72252 11 1.09922 11 1.49989C11 1.90056 10.8438 2.27722 10.5606 2.56055L3.6211 9.49993L10.5606 16.4393C10.8438 16.7226 11 17.0993 11 17.5C11 17.9006 10.8438 18.2773 10.5606 18.5606C10.2769 18.844 9.90045 19 9.50004 19Z" fill="#3F4238"/>
</g>
<defs>
<clipPath id="clip0_139_77">
<rect width="11" height="19" fill="white"/>
</clipPath>
</defs>
</svg>
