<svg width="103" height="46" viewBox="0 0 103 46" fill="none" xmlns="http://www.w3.org/2000/svg">
<path d="M1.5 44.9287C2.83333 44.4287 4.2 42.1286 5 36.9286C6 30.4286 8.91806 -0.231903 11 8.92864C13.5 19.9287 10.8127 15.273 17 36.9286C21 50.9287 26.335 32.8686 29.5 24.4287C31 20.4287 34.5 9.92866 38 21.4287C41.5 32.9287 42.5 44.9287 47.5 40.9287C52.5 36.9286 51 13.9286 51 8.92864C51 1.92871 59 -5.57134 63 10.9287C67 27.4287 64 29.4287 69 38.9287C74.5549 49.483 81 34.4287 83 29.4287C85 24.4287 82.5 17.9287 87 16.4287C91.5 14.9287 92 18.4287 93.5 21.4287C95 24.4287 96 39.9287 101.5 44.4287" stroke="#EFB296" stroke-width="2" stroke-linecap="round"/>
</svg>
