<svg width="51" height="51" viewBox="0 0 51 51" fill="none" xmlns="http://www.w3.org/2000/svg">
<path d="M39.6582 35.598L26.7503 25.5033L39.6582 15.4119C40.1353 15.0368 40.415 14.4643 40.415 13.8555C40.415 13.2468 40.1353 12.6743 39.6582 12.2992L24.763 0.651483C24.1674 0.187548 23.3613 0.102 22.6802 0.431032C22.0024 0.763354 21.5713 1.45103 21.5713 2.20452V21.4496L13.7766 15.3625C12.9178 14.6913 11.6773 14.8426 11.0061 15.7014C10.3349 16.5602 10.4862 17.8006 11.345 18.4719L20.3408 25.5033L11.3417 32.5413C10.483 33.2125 10.3316 34.453 11.0028 35.3117C11.3911 35.8086 11.9735 36.0685 12.5592 36.0685C12.9836 36.0685 13.4113 35.9303 13.7733 35.6506L21.5713 29.5537V48.7988C21.5713 50.411 23.4863 51.3521 24.763 50.3551L39.6582 38.7074C40.1353 38.3323 40.415 37.7597 40.415 37.151C40.415 36.5423 40.1353 35.9698 39.6582 35.598ZM25.5197 6.25819L35.2361 13.8555L25.5197 21.4529V6.25819ZM25.5197 44.7517V29.557L35.2361 37.1543L25.5197 44.7517Z" fill="#FFE8D6"/>
</svg>
