<svg width="103" height="44" viewBox="0 0 103 44" fill="none" xmlns="http://www.w3.org/2000/svg">
<path d="M1 40.8141C1.16503 29.6201 2.58431 9.89889 6.94118 20.5661C12.3031 33.694 13.8257 48.258 16.7064 37.8652C16.7967 37.5396 16.857 37.1948 16.8874 36.8583C18.2369 21.9052 22.5158 -2.89165 29.36 11.8669C29.5957 12.3752 29.7495 12.9395 29.8241 13.4949C31.7012 27.4765 37.3533 50.2288 46.185 38.5843C46.7785 37.8019 47.0873 36.8519 47.1793 35.8741C49.1217 15.2172 54.5498 -16.265 61.8971 12.6644C71.3039 49.7034 77.7402 45.7526 83.1863 37.3571C88.6324 28.9616 93.5833 -8.57124 102 9.20748" stroke="#EFB296" stroke-width="2" stroke-linecap="round"/>
</svg>
