<svg width="167" height="167" viewBox="0 0 167 167" fill="none" xmlns="http://www.w3.org/2000/svg">
<circle opacity="0.1" cx="83.5" cy="83.5" r="83.5" fill="#3F4239"/>
<circle opacity="0.2" cx="83.5" cy="83.5" r="73.5" fill="#3F4239"/>
<circle cx="83.5" cy="83.5" r="61.5" fill="#3F4239" fill-opacity="0.4"/>
<circle cx="83.5" cy="83.5" r="48.5" fill="#3F4239"/>
<g clip-path="url(#clip0_260_76)">
<path d="M98.9619 73.2376C98.2739 72.2182 97.482 71.2601 96.6114 70.3883C95.7408 69.5177 94.7816 68.727 93.7623 68.0379C92.7342 67.3433 91.6339 66.7461 90.4931 66.2628C88.1197 65.2597 85.5986 64.75 82.9999 64.75C80.4012 64.75 77.8802 65.2597 75.5067 66.2627C74.366 66.7461 73.2667 67.3433 72.2375 68.0378C71.2182 68.7269 70.2589 69.5175 69.3884 70.3882C68.5178 71.26 67.727 72.218 67.0381 73.2375C66.3424 74.2666 65.7452 75.367 65.2629 76.5067C64.2599 78.8802 63.7502 81.4013 63.7502 84C63.7502 86.5987 64.2599 89.12 65.2629 91.4933C65.7452 92.6342 66.3423 93.7344 67.0381 94.7636C67.7271 95.783 68.5179 96.7411 69.3884 97.6117C70.259 98.4834 71.2183 99.2742 72.2375 99.9622C73.2667 100.658 74.366 101.255 75.5067 101.737C77.8802 102.742 80.4012 103.25 82.9999 103.25L83.0032 103.245V103.25C85.0343 103.25 87.0368 102.934 88.9531 102.312C90.8081 101.709 92.5558 100.828 94.1483 99.6953C94.6394 99.3453 94.7553 98.6617 94.4053 98.1695C94.2008 97.8819 93.8672 97.7103 93.5128 97.7103C93.2853 97.7103 93.0666 97.7803 92.8797 97.9126C92.8797 97.9126 92.8797 97.9137 92.8786 97.9137C89.9823 99.9731 86.5654 101.062 82.9999 101.062C78.4434 101.062 74.1592 99.2875 70.9349 96.0653C67.7127 92.8409 65.9386 88.5567 65.9376 84C65.9387 79.4434 67.7128 75.1592 70.9349 71.9348C74.1592 68.7127 78.4434 66.9375 82.9999 66.9375C87.5553 66.9375 91.8406 68.7127 95.065 71.9348C98.2872 75.1591 100.062 79.4445 100.062 84C100.062 86.3723 99.5853 88.667 98.6447 90.8217C98.403 91.3741 98.6567 92.0205 99.2091 92.2611C99.348 92.3223 99.4956 92.353 99.6466 92.353C100.081 92.353 100.475 92.0959 100.648 91.6967C101.168 90.5078 101.567 89.2598 101.835 87.9889C102.111 86.6852 102.25 85.3432 102.25 84C102.25 81.4013 101.74 78.8802 100.737 76.5067C100.255 75.367 99.6575 74.2667 98.9619 73.2376Z" fill="#FFE8D6"/>
<path d="M90.656 83.4534V81.2659C90.656 80.6619 90.1664 80.1721 89.5623 80.1721C88.9582 80.1721 88.4685 80.6619 88.4685 81.2659V83.4534C88.4685 86.4688 86.0154 88.9221 82.9999 88.9221C79.9844 88.9221 77.5313 86.4688 77.5313 83.4534V81.2659C77.5313 80.6619 77.0416 80.1721 76.4375 80.1721C75.8334 80.1721 75.3438 80.6619 75.3438 81.2659V83.4534C75.3438 87.3036 78.201 90.4978 81.9061 91.0302V95.4846H79.7186C79.1146 95.4846 78.6249 95.9744 78.6249 96.5784C78.6249 97.1823 79.1146 97.6721 79.7186 97.6721H86.2811C86.8852 97.6721 87.3749 97.1823 87.3749 96.5784C87.3749 95.9744 86.8852 95.4846 86.2811 95.4846H84.0936V91.0302C87.7988 90.4978 90.656 87.3036 90.656 83.4534Z" fill="#FFE8D6"/>
<path d="M85.3198 85.773C85.94 85.1539 86.2812 84.3304 86.2812 83.4531V73.6094C86.2812 72.7333 85.94 71.9086 85.3198 71.2895C84.7008 70.6705 83.8772 70.3292 83 70.3281C82.1228 70.3292 81.2992 70.6705 80.6802 71.2895C80.06 71.9086 79.7188 72.7333 79.7188 73.6094V83.4531C79.7188 84.3304 80.06 85.1539 80.6802 85.773C81.2992 86.3931 82.1228 86.7344 83 86.7344C83.8761 86.7344 84.7008 86.3931 85.3198 85.773ZM81.9062 83.4531V73.6094C81.9073 73.0078 82.3984 72.5167 83 72.5156C83.6016 72.5167 84.0927 73.0078 84.0938 73.6094V83.4531C84.0927 84.0558 83.6016 84.5458 83 84.5469C82.3984 84.5458 81.9073 84.0558 81.9062 83.4531Z" fill="#FFE8D6"/>
<path d="M58.1085 73.7302C57.5407 73.5231 56.9132 73.8166 56.7068 74.3841C54.4562 80.573 54.4305 87.4003 56.6344 93.6083C56.7936 94.0566 57.2151 94.3364 57.6652 94.3364C57.7866 94.3364 57.9102 94.316 58.0312 94.2731C58.6005 94.071 58.8981 93.4458 58.6959 92.8764C56.6616 87.146 56.6852 80.8442 58.7627 75.1318C58.9689 74.5641 58.6761 73.9365 58.1085 73.7302Z" fill="#FFE8D6"/>
<path d="M109.293 74.3842C109.087 73.8168 108.459 73.5239 107.891 73.7302C107.324 73.9366 107.031 74.5642 107.237 75.1319C109.315 80.8444 109.338 87.1462 107.304 92.8765C107.102 93.4458 107.4 94.071 107.969 94.2732C108.09 94.3162 108.213 94.3365 108.335 94.3365C108.785 94.3365 109.206 94.0566 109.366 93.6084C111.569 87.4004 111.544 80.5731 109.293 74.3842Z" fill="#FFE8D6"/>
<path d="M62.1433 75.3117C61.5731 75.1125 60.9491 75.4122 60.7494 75.9822C58.9418 81.1401 58.9167 86.8319 60.6791 92.0089C60.8339 92.4639 61.259 92.7505 61.7143 92.7505C61.8311 92.7505 61.9501 92.7315 62.0669 92.6918C62.6387 92.4972 62.9444 91.8758 62.7499 91.304C61.1446 86.5883 61.1673 81.4038 62.8137 76.7057C63.0135 76.1358 62.7133 75.5117 62.1433 75.3117Z" fill="#FFE8D6"/>
<path d="M103.857 75.3117C103.287 75.5115 102.987 76.1356 103.186 76.7057C104.833 81.4038 104.856 86.5881 103.25 91.304C103.056 91.8759 103.361 92.4971 103.933 92.6918C104.05 92.7315 104.169 92.7504 104.286 92.7504C104.741 92.7504 105.166 92.4639 105.321 92.0089C107.083 86.8318 107.058 81.1401 105.251 75.9822C105.051 75.4122 104.427 75.112 103.857 75.3117Z" fill="#FFE8D6"/>
<path d="M97.0925 96.5421C97.6966 96.5421 98.1863 96.0524 98.1863 95.4483C98.1863 94.8442 97.6966 94.3546 97.0925 94.3546C96.4885 94.3546 95.9988 94.8442 95.9988 95.4483C95.9988 96.0524 96.4885 96.5421 97.0925 96.5421Z" fill="#FFE8D6"/>
</g>
<defs>
<clipPath id="clip0_260_76">
<rect width="56" height="56" fill="white" transform="translate(55 56)"/>
</clipPath>
</defs>
</svg>
