<svg width="37" height="23" viewBox="0 0 37 23" fill="none" xmlns="http://www.w3.org/2000/svg">
<path opacity="0.7" d="M18.0167 10.925L13.4167 5.17499C13.1292 4.79166 12.4583 4.69583 12.075 4.98333C11.6917 5.27083 11.5958 5.94166 11.8833 6.32499L16.0042 11.5L11.6917 16.675C11.3083 17.0583 11.4042 17.7292 11.7875 18.0167C11.9792 18.1125 12.1708 18.2083 12.3625 18.2083C12.65 18.2083 12.9375 18.1125 13.1292 17.825L17.9208 12.075C18.3042 11.7875 18.3042 11.2125 18.0167 10.925Z" fill="#3F4238"/>
<path d="M6.70835 5.175C6.42085 4.69583 5.75002 4.6 5.36668 4.98333C4.88752 5.27083 4.79168 5.94166 5.17502 6.325L9.29585 11.5L4.98335 16.675C4.60002 17.0583 4.69585 17.7292 5.07918 18.0167C5.27085 18.1125 5.55835 18.2083 5.75002 18.2083C6.03752 18.2083 6.32502 18.1125 6.51668 17.825L11.3083 12.075C11.5958 11.6917 11.5958 11.2125 11.3083 10.8292L6.70835 5.175Z" fill="#3F4238"/>
<path opacity="0.5" d="M20.7083 5.175C20.4208 4.69583 19.75 4.6 19.3667 4.98333C18.8875 5.27083 18.7917 5.94166 19.175 6.325L23.2958 11.5L18.9833 16.675C18.6 17.0583 18.6958 17.7292 19.0792 18.0167C19.2708 18.1125 19.5583 18.2083 19.75 18.2083C20.0375 18.2083 20.325 18.1125 20.5167 17.825L25.3083 12.075C25.5958 11.6917 25.5958 11.2125 25.3083 10.8292L20.7083 5.175Z" fill="#3F4238"/>
</svg>
