<svg width="56" height="56" viewBox="0 0 56 56" fill="none" xmlns="http://www.w3.org/2000/svg">
<g clip-path="url(#clip0_423_10)">
<path d="M43.9619 17.2376C43.2739 16.2182 42.482 15.2601 41.6114 14.3883C40.7408 13.5177 39.7816 12.727 38.7623 12.0379C37.7342 11.3433 36.6339 10.7461 35.4931 10.2628C33.1197 9.25969 30.5986 8.75 27.9999 8.75C25.4012 8.75 22.8802 9.25969 20.5067 10.2627C19.366 10.7461 18.2667 11.3433 17.2375 12.0378C16.2182 12.7269 15.2589 13.5175 14.3884 14.3882C13.5178 15.26 12.727 16.218 12.0381 17.2375C11.3424 18.2666 10.7452 19.367 10.2629 20.5067C9.25993 22.8802 8.75024 25.4013 8.75024 28C8.75024 30.5987 9.25993 33.12 10.2629 35.4933C10.7452 36.6342 11.3423 37.7344 12.0381 38.7636C12.7271 39.783 13.5179 40.7411 14.3884 41.6117C15.259 42.4834 16.2183 43.2742 17.2375 43.9622C18.2667 44.6577 19.366 45.2549 20.5067 45.7372C22.8802 46.7415 25.4012 47.25 27.9999 47.25L28.0032 47.2445V47.25C30.0343 47.25 32.0368 46.9339 33.9531 46.3116C35.8081 45.7089 37.5558 44.8284 39.1483 43.6953C39.6394 43.3453 39.7553 42.6617 39.4053 42.1695C39.2008 41.8819 38.8672 41.7103 38.5128 41.7103C38.2853 41.7103 38.0666 41.7803 37.8797 41.9126C37.8797 41.9126 37.8797 41.9137 37.8786 41.9137C34.9823 43.9731 31.5654 45.0625 27.9999 45.0625C23.4434 45.0625 19.1592 43.2875 15.9349 40.0653C12.7127 36.8409 10.9386 32.5567 10.9376 28C10.9387 23.4434 12.7128 19.1592 15.9349 15.9348C19.1592 12.7127 23.4434 10.9375 27.9999 10.9375C32.5553 10.9375 36.8406 12.7127 40.065 15.9348C43.2872 19.1591 45.0622 23.4445 45.0622 28C45.0622 30.3723 44.5853 32.667 43.6447 34.8217C43.403 35.3741 43.6567 36.0205 44.2091 36.2611C44.348 36.3223 44.4956 36.353 44.6466 36.353C45.0808 36.353 45.4745 36.0959 45.6485 35.6967C46.168 34.5078 46.5672 33.2598 46.8352 31.9889C47.1108 30.6852 47.2497 29.3432 47.2497 28C47.2497 25.4013 46.74 22.8802 45.737 20.5067C45.2547 19.367 44.6575 18.2667 43.9619 17.2376Z" fill="#FFE8D6"/>
<path d="M35.656 27.4533V25.2658C35.656 24.6619 35.1664 24.1721 34.5623 24.1721C33.9582 24.1721 33.4685 24.6619 33.4685 25.2658V27.4533C33.4685 30.4688 31.0154 32.9221 27.9999 32.9221C24.9844 32.9221 22.5313 30.4688 22.5313 27.4533V25.2658C22.5313 24.6619 22.0416 24.1721 21.4375 24.1721C20.8334 24.1721 20.3438 24.6619 20.3438 25.2658V27.4533C20.3438 31.3036 23.201 34.4977 26.9061 35.0302V39.4846H24.7186C24.1146 39.4846 23.6249 39.9744 23.6249 40.5783C23.6249 41.1823 24.1146 41.6721 24.7186 41.6721H31.2811C31.8852 41.6721 32.3749 41.1823 32.3749 40.5783C32.3749 39.9744 31.8852 39.4846 31.2811 39.4846H29.0936V35.0302C32.7988 34.4977 35.656 31.3036 35.656 27.4533Z" fill="#FFE8D6"/>
<path d="M30.3198 29.773C30.94 29.1539 31.2812 28.3304 31.2812 27.4531V17.6094C31.2812 16.7333 30.94 15.9086 30.3198 15.2895C29.7008 14.6705 28.8772 14.3292 28 14.3281C27.1228 14.3292 26.2992 14.6705 25.6802 15.2895C25.06 15.9086 24.7188 16.7333 24.7188 17.6094V27.4531C24.7188 28.3304 25.06 29.1539 25.6802 29.773C26.2992 30.3931 27.1228 30.7344 28 30.7344C28.8761 30.7344 29.7008 30.3931 30.3198 29.773ZM26.9062 27.4531V17.6094C26.9073 17.0078 27.3984 16.5167 28 16.5156C28.6016 16.5167 29.0927 17.0078 29.0938 17.6094V27.4531C29.0927 28.0558 28.6016 28.5458 28 28.5469C27.3984 28.5458 26.9073 28.0558 26.9062 27.4531Z" fill="#FFE8D6"/>
<path d="M3.10849 17.7301C2.54072 17.5231 1.91324 17.8165 1.70685 18.3841C-0.54376 24.573 -0.569463 31.4002 1.63444 37.6083C1.79358 38.0566 2.21511 38.3364 2.66519 38.3364C2.7866 38.3364 2.91019 38.3159 3.03116 38.273C3.60046 38.0709 3.89807 37.4457 3.69594 36.8763C1.66157 31.146 1.68519 24.8442 3.76266 19.1318C3.96894 18.5641 3.67615 17.9365 3.10849 17.7301Z" fill="#FFE8D6"/>
<path d="M54.293 18.3842C54.0865 17.8168 53.4593 17.5238 52.8914 17.7302C52.3237 17.9366 52.0308 18.5642 52.2373 19.1319C54.3147 24.8444 54.3384 31.1462 52.304 36.8764C52.1019 37.4457 52.3996 38.071 52.9688 38.2732C53.0898 38.3161 53.2133 38.3365 53.3348 38.3365C53.7848 38.3365 54.2064 38.0566 54.3655 37.6084C56.5693 31.4004 56.5435 24.5731 54.293 18.3842Z" fill="#FFE8D6"/>
<path d="M7.14327 19.3117C6.5731 19.1125 5.94912 19.4122 5.7494 19.9822C3.94176 25.1401 3.91671 30.8318 5.67907 36.0089C5.83394 36.4639 6.25898 36.7504 6.7143 36.7504C6.83112 36.7504 6.95012 36.7315 7.06693 36.6918C7.63874 36.4971 7.94444 35.8758 7.74987 35.304C6.14457 30.5882 6.16732 25.4038 7.81374 20.7057C8.01346 20.1357 7.71333 19.5116 7.14327 19.3117Z" fill="#FFE8D6"/>
<path d="M48.8567 19.3117C48.2867 19.5115 47.9866 20.1356 48.1864 20.7057C49.8328 25.4038 49.8556 30.5881 48.2503 35.304C48.0556 35.8759 48.3614 36.4971 48.9332 36.6918C49.05 36.7315 49.1689 36.7504 49.2858 36.7504C49.7412 36.7504 50.1662 36.4639 50.3211 36.0089C52.0834 30.8318 52.0584 25.1401 50.2507 19.9822C50.0509 19.4122 49.4271 19.112 48.8567 19.3117Z" fill="#FFE8D6"/>
<path d="M42.0925 40.542C42.6966 40.542 43.1863 40.0523 43.1863 39.4483C43.1863 38.8442 42.6966 38.3545 42.0925 38.3545C41.4885 38.3545 40.9988 38.8442 40.9988 39.4483C40.9988 40.0523 41.4885 40.542 42.0925 40.542Z" fill="#FFE8D6"/>
</g>
<defs>
<clipPath id="clip0_423_10">
<rect width="56" height="56" fill="white"/>
</clipPath>
</defs>
</svg>
