<svg width="25" height="25" viewBox="0 0 25 25" fill="none" xmlns="http://www.w3.org/2000/svg">
<g clip-path="url(#clip0_139_2)">
<path d="M14.8024 17.9052C16.2499 19.2265 18.7939 17.2612 17.6816 15.5328C16.1437 13.2882 12.9808 15.8431 14.8024 17.9052Z" fill="#FFE8D6"/>
<path d="M24.4926 8.44756C24.3717 8.30508 24.1581 8.2877 24.0158 8.40879C23.5506 8.80342 23.0837 9.19556 22.6103 9.58301C21.1781 10.7683 19.7041 11.9053 18.362 13.2043C18.0415 13.5078 18.057 14.0348 18.3961 14.3181C18.7121 14.5856 19.1852 14.5463 19.4528 14.2303C20.2357 13.3104 21.0802 12.4364 21.9332 11.5713C22.2896 11.0717 24.9896 8.85562 24.4926 8.44756Z" fill="#FFE8D6"/>
<path d="M24.8928 0.626607C24.7377 0.452974 24.4712 0.438033 24.2976 0.593209C23.2243 1.55278 22.1432 2.50175 21.055 3.44619C18.9596 5.29077 16.629 7.17793 14.6577 9.1559C13.6441 10.1808 12.6632 11.2435 11.8204 12.4157C11.5522 12.8061 12.0119 13.274 12.4066 13.0163C13.8644 11.975 15.1791 10.7554 16.4467 9.49516C18.1598 7.67544 19.8365 5.81269 21.7021 4.14184C22.7384 3.16723 23.7995 2.17231 24.8578 1.22334C25.0328 1.06865 25.0486 0.800728 24.8928 0.626607Z" fill="#FFE8D6"/>
<path d="M13.4858 4.31426C14.6371 4.22353 15.2201 3.1833 15.7882 2.31753C16.1811 1.78262 16.6039 1.30693 17.0871 0.842968C17.4599 0.456444 16.9419 -0.103712 16.5281 0.237011C16.045 0.663573 15.5134 1.13247 15.0529 1.58252C14.3381 2.27739 13.3164 2.70044 12.9195 3.68769C12.7755 4.04678 13.1206 4.3977 13.4858 4.31426Z" fill="#FFE8D6"/>
<path d="M6.89939 8.62954C7.94099 11.5491 12.6631 9.97514 11.6263 6.96674C10.6391 4.20312 6.30256 4.90703 6.36692 7.89628C6.35828 8.23999 6.58743 8.53491 6.89939 8.62954ZM8.10061 7.02133C8.71145 6.21142 10.1413 6.41152 10.546 7.36064C11.0396 8.50102 9.82322 9.44956 8.74451 9.26045C8.2157 9.19243 7.83259 8.89326 7.62258 8.46372C8.03235 8.1103 7.7344 7.39013 8.10061 7.02133Z" fill="#FFE8D6"/>
<path d="M0.578057 16.9818C-1.78698 21.3137 3.59305 26.3829 7.89178 24.4421C8.80198 24.0157 8.13069 22.6417 7.23587 23.0959C6.845 23.2981 6.41043 23.4223 5.96902 23.4456C3.00818 23.5633 0.12088 20.4846 1.51946 17.5461C2.16839 15.9661 3.65648 14.6935 5.3826 14.5172C8.56282 13.806 11.3242 17.6873 9.9658 20.5335C9.86497 20.8173 10.0133 21.1292 10.2971 21.23C11.1916 21.4582 11.1816 20.0886 11.2828 19.5134C11.3469 18.5882 11.1676 17.6597 10.7942 16.8182C8.9116 12.1789 2.50936 12.6299 0.578057 16.9818Z" fill="#FFE8D6"/>
</g>
<defs>
<clipPath id="clip0_139_2">
<rect width="25" height="25" fill="white"/>
</clipPath>
</defs>
</svg>
