<svg width="348" height="348" viewBox="0 0 348 348" fill="none" xmlns="http://www.w3.org/2000/svg">
<line x1="29.25" y1="1.09592e-08" x2="29.25" y2="348" stroke="#D7AA94" stroke-width="0.5"/>
<line x1="145.25" y1="1.09592e-08" x2="145.25" y2="348" stroke="#D7AA94" stroke-width="0.5"/>
<line x1="261.25" y1="1.09592e-08" x2="261.25" y2="348" stroke="#D7AA94" stroke-width="0.5"/>
<line x1="87.25" y1="1.09592e-08" x2="87.25" y2="348" stroke="#D7AA94" stroke-width="0.5"/>
<line x1="203.25" y1="1.09592e-08" x2="203.25" y2="348" stroke="#D7AA94" stroke-width="0.5"/>
<line x1="319.25" y1="1.09592e-08" x2="319.25" y2="348" stroke="#D7AA94" stroke-width="0.5"/>
<line x1="58.25" y1="1.09592e-08" x2="58.25" y2="348" stroke="#D7AA94" stroke-width="0.5"/>
<line x1="174.25" y1="1.09592e-08" x2="174.25" y2="348" stroke="#D7AA94" stroke-width="0.5"/>
<line x1="290.25" y1="1.09592e-08" x2="290.25" y2="348" stroke="#D7AA94" stroke-width="0.5"/>
<line x1="116.25" y1="1.09592e-08" x2="116.25" y2="348" stroke="#D7AA94" stroke-width="0.5"/>
<line x1="232.25" y1="1.09592e-08" x2="232.25" y2="348" stroke="#D7AA94" stroke-width="0.5"/>
<line y1="318.75" x2="348" y2="318.75" stroke="#D7AA94" stroke-width="0.5"/>
<line y1="202.75" x2="348" y2="202.75" stroke="#D7AA94" stroke-width="0.5"/>
<line y1="86.75" x2="348" y2="86.75" stroke="#D7AA94" stroke-width="0.5"/>
<line y1="260.75" x2="348" y2="260.75" stroke="#D7AA94" stroke-width="0.5"/>
<line y1="144.75" x2="348" y2="144.75" stroke="#D7AA94" stroke-width="0.5"/>
<line y1="28.75" x2="348" y2="28.75" stroke="#D7AA94" stroke-width="0.5"/>
<line y1="289.75" x2="348" y2="289.75" stroke="#D7AA94" stroke-width="0.5"/>
<line y1="173.75" x2="348" y2="173.75" stroke="#D7AA94" stroke-width="0.5"/>
<line y1="57.75" x2="348" y2="57.75" stroke="#D7AA94" stroke-width="0.5"/>
<line y1="231.75" x2="348" y2="231.75" stroke="#D7AA94" stroke-width="0.5"/>
<line y1="115.75" x2="348" y2="115.75" stroke="#D7AA94" stroke-width="0.5"/>
</svg>
