<svg width="39" height="39" viewBox="0 0 39 39" fill="none" xmlns="http://www.w3.org/2000/svg">
<g clip-path="url(#clip0_137_10)">
<path d="M38.9946 28.4141C38.9963 28.413 38.9983 28.4124 39 28.4113L38.9178 28.2626L38.8587 28.1033C37.8776 28.468 36.998 28.4477 36.1697 28.0408C33.5218 26.7405 31.9732 21.7652 30.4748 16.954C29.0257 12.3006 27.6577 7.90474 25.3525 7.27918C24.4101 7.02277 23.4035 7.39838 22.2743 8.42773C20.652 9.97295 19.1397 13.2909 17.6763 16.4999C15.93 20.331 14.1243 24.2922 12.3876 24.4559C11.2173 24.5727 10.012 23.0058 8.74017 21.3539C6.61388 18.5929 3.96731 15.1567 0.0258103 17.6369L0.103581 17.7609C0.0750536 17.7806 0.046866 17.7965 0.0183389 17.8169L0.099845 17.932C0.070299 17.9544 0.0410927 17.9731 0.0115467 17.9962L0.0961093 18.1035C0.0658841 18.1287 0.0356589 18.1497 0.00543374 18.1759L0.0916944 18.2754C0.0611296 18.3032 0.0305648 18.3263 0 18.3552L0.232972 18.6028C1.12784 17.7592 1.96192 17.4291 2.77936 17.5921C4.93078 18.0217 6.67094 21.9068 8.20597 25.3345C9.75696 28.7971 11.1008 31.7979 12.8066 31.7979C12.844 31.7979 12.8817 31.7966 12.9197 31.7935C15.3469 31.6057 16.2452 28.3597 17.2854 24.6009C18.0234 21.9336 18.8598 18.9115 20.3728 16.7532C21.7187 14.9163 22.9199 14.068 24.0463 14.1624C26.0626 14.3301 27.6584 17.5011 29.348 20.8584C31.137 24.4138 32.9876 28.0894 35.6382 28.9041C36.6937 29.2288 37.8209 29.0647 38.9868 28.4178C38.9874 28.4178 38.9881 28.4174 38.9888 28.4171C38.9908 28.4161 38.9929 28.4154 38.9946 28.4141ZM8.33095 23.4979C9.82115 26.1421 11.1018 28.4246 12.6694 28.2938C14.8545 28.1084 16.2156 24.4328 17.6569 20.5419C18.7529 17.5832 19.8861 14.5237 21.4422 12.7129C22.6129 11.3504 23.6463 10.7649 24.5975 10.9245C26.6372 11.2655 28.1155 14.9822 29.6808 18.9169C30.5437 21.0856 31.4223 23.289 32.4415 25.0713C31.4879 23.5077 30.6331 21.6039 29.7925 19.7296C28.1213 16 26.5418 12.4772 24.3357 12.2089C23.179 12.067 21.9676 12.8246 20.6407 14.5234C19.0558 16.5515 18.0808 19.5577 17.1384 22.4651C15.9589 26.102 14.8453 29.5375 12.7673 29.7056C11.3409 29.8272 9.99333 27.128 8.57139 24.2769C7.97402 23.0788 7.36849 21.8667 6.72867 20.7878C7.29106 21.6562 7.82255 22.5966 8.33095 23.4979ZM6.20839 19.4518C6.99424 20.3857 7.71795 21.4955 8.39853 22.5432C9.83949 24.7602 11.0869 26.6736 12.5445 26.5442C14.6011 26.3604 16.1637 22.5836 17.8179 18.5854C19.0877 15.5171 20.4003 12.3441 21.9751 10.6943C23.071 9.5464 24.0307 9.07978 24.912 9.26928C26.9823 9.71383 28.395 13.7195 29.8907 17.9602C30.6415 20.0889 31.4043 22.2505 32.2853 24.0769C31.4644 22.4811 30.7244 20.6231 29.9963 18.7916C28.395 14.7655 26.8824 10.9626 24.6542 10.59C23.5756 10.4104 22.4397 11.0315 21.1845 12.4922C19.5886 14.3488 18.4448 17.4376 17.3384 20.4244C15.9358 24.2111 14.6107 27.7888 12.6406 27.9559C11.3015 28.069 10.0005 25.7685 8.62674 23.3318C7.8813 22.0094 7.08696 20.603 6.20839 19.4518ZM8.4712 21.5614C9.85952 23.3644 11.056 24.9229 12.4195 24.7945C14.3519 24.6125 16.1168 20.7406 17.9853 16.6419C19.4348 13.4624 20.9335 10.175 22.5055 8.67735C23.5393 7.73493 24.4416 7.38547 25.2635 7.60792C27.3888 8.18457 28.7299 12.4939 30.1508 17.0565C30.8304 19.2395 31.5208 21.4544 32.3243 23.3597C31.5632 21.6779 30.8823 19.7496 30.2109 17.8475C28.6823 13.5144 27.2387 9.42177 24.9826 8.93749C23.9771 8.72183 22.9124 9.2197 21.7289 10.4603C20.1099 12.156 18.7851 15.3588 17.5038 18.456C15.89 22.3561 14.3655 26.0405 12.5139 26.2056C11.2594 26.3214 10.0066 24.3944 8.68278 22.3575C7.811 21.0167 6.87165 19.5747 5.80595 18.5077C6.7735 19.3584 7.64392 20.4869 8.4712 21.5614ZM24.0745 13.8241C22.8234 13.7195 21.5203 14.6123 20.0967 16.5556C18.5481 18.7644 17.7038 21.8171 16.958 24.5106C15.9521 28.1461 15.083 31.2858 12.8936 31.4549C11.3728 31.5728 9.98518 28.4755 8.51603 25.1952C8.06707 24.1927 7.61369 23.1814 7.14469 22.2305C7.53218 22.9559 7.90575 23.703 8.2671 24.4284C9.76851 27.4387 11.0696 30.0493 12.6745 30.0489C12.7143 30.0489 12.7543 30.0472 12.7948 30.0438C15.0983 29.8574 16.1936 26.4803 17.4613 22.5694C18.3949 19.6902 19.3604 16.7128 20.9084 14.7322C22.1561 13.1354 23.2656 12.4209 24.2949 12.5458C26.3105 12.791 27.852 16.2285 29.4831 19.8681C30.4147 21.9462 31.3639 24.0569 32.4557 25.724C31.4505 24.2776 30.5427 22.4773 29.6512 20.7063C27.9175 17.2613 26.28 14.0075 24.0745 13.8241Z" fill="#FFE8D6"/>
</g>
<defs>
<clipPath id="clip0_137_10">
<rect width="39" height="39" fill="white"/>
</clipPath>
</defs>
</svg>
