<svg width="25" height="25" viewBox="0 0 25 25" fill="none" xmlns="http://www.w3.org/2000/svg">
<path d="M12.5 1.04166C10.2337 1.04166 8.01837 1.71368 6.13406 2.97274C4.24974 4.2318 2.7811 6.02135 1.91384 8.11508C1.04659 10.2088 0.819677 12.5127 1.2618 14.7354C1.70392 16.9581 2.79522 18.9998 4.3977 20.6023C6.00018 22.2047 8.04186 23.296 10.2646 23.7382C12.4873 24.1803 14.7911 23.9534 16.8849 23.0861C18.9786 22.2189 20.7682 20.7502 22.0272 18.8659C23.2863 16.9816 23.9583 14.7662 23.9583 12.5C23.9547 9.46216 22.7463 6.54977 20.5983 4.40169C18.4502 2.25361 15.5378 1.04525 12.5 1.04166ZM12.5 21.875C10.6458 21.875 8.8332 21.3252 7.29149 20.295C5.74978 19.2649 4.54817 17.8007 3.83859 16.0877C3.12902 14.3746 2.94337 12.4896 3.3051 10.671C3.66684 8.85245 4.55972 7.18199 5.87084 5.87087C7.18196 4.55975 8.85242 3.66687 10.671 3.30514C12.4896 2.9434 14.3746 3.12906 16.0876 3.83863C17.8007 4.5482 19.2649 5.74982 20.295 7.29153C21.3251 8.83324 21.875 10.6458 21.875 12.5C21.8722 14.9856 20.8836 17.3685 19.126 19.1261C17.3685 20.8836 14.9855 21.8722 12.5 21.875ZM7.13955 11.7573L6.39684 12.5L7.05517 13.1594C7.15466 13.2555 7.23402 13.3704 7.28861 13.4975C7.3432 13.6246 7.37194 13.7613 7.37314 13.8996C7.37434 14.0379 7.34799 14.1751 7.29561 14.3031C7.24324 14.4311 7.16589 14.5474 7.06808 14.6452C6.97028 14.743 6.85398 14.8204 6.72596 14.8727C6.59794 14.9251 6.46078 14.9515 6.32246 14.9503C6.18415 14.9491 6.04746 14.9203 5.92038 14.8657C5.79329 14.8111 5.67835 14.7318 5.58226 14.6323L4.18746 13.2365C3.99218 13.0411 3.88248 12.7762 3.88248 12.5C3.88248 12.2238 3.99218 11.9589 4.18746 11.7635L5.66559 10.2844C5.86091 10.0889 6.12588 9.97905 6.4022 9.97895C6.67852 9.97886 6.94357 10.0885 7.13903 10.2839C7.33449 10.4792 7.44435 10.7441 7.44445 11.0205C7.44454 11.2968 7.33487 11.5618 7.13955 11.7573ZM14.6104 17.9646C14.8057 18.1599 14.9154 18.4248 14.9154 18.701C14.9154 18.9773 14.8057 19.2422 14.6104 19.4375L13.2364 20.8125C13.0411 21.0078 12.7762 21.1175 12.5 21.1175C12.2238 21.1175 11.9588 21.0078 11.7635 20.8125L10.4385 19.4865C10.2488 19.29 10.1438 19.0269 10.1461 18.7537C10.1485 18.4806 10.2581 18.2194 10.4512 18.0262C10.6443 17.8331 10.9056 17.7235 11.1787 17.7212C11.4518 17.7188 11.715 17.8238 11.9114 18.0135L12.5 18.6021L13.1375 17.9646C13.3328 17.7693 13.5977 17.6596 13.8739 17.6596C14.1501 17.6596 14.415 17.7693 14.6104 17.9646ZM21.1177 12.5C21.1176 12.7762 21.0078 13.0412 20.8125 13.2365L19.2979 14.75C19.1014 14.9397 18.8383 15.0447 18.5652 15.0424C18.2921 15.04 18.0308 14.9304 17.8377 14.7373C17.6445 14.5442 17.535 14.2829 17.5326 14.0098C17.5302 13.7367 17.6352 13.4735 17.825 13.2771L18.6031 12.5L17.951 11.8479C17.8515 11.7518 17.7722 11.6369 17.7176 11.5098C17.663 11.3827 17.6342 11.246 17.633 11.1077C17.6318 10.9694 17.6582 10.8322 17.7106 10.7042C17.7629 10.5762 17.8403 10.4599 17.9381 10.3621C18.0359 10.2643 18.1522 10.1869 18.2802 10.1346C18.4082 10.0822 18.5454 10.0558 18.6837 10.057C18.822 10.0582 18.9587 10.087 19.0858 10.1416C19.2129 10.1962 19.3278 10.2755 19.4239 10.375L20.8125 11.7635C21.0078 11.9588 21.1176 12.2238 21.1177 12.5ZM15.2177 6.16875C15.3244 6.26271 15.4108 6.37754 15.4715 6.50616C15.5322 6.63478 15.5659 6.77447 15.5706 6.91662C15.5753 7.05877 15.5507 7.20036 15.4986 7.33268C15.4464 7.465 15.3678 7.58523 15.2674 7.68598C15.167 7.78672 15.047 7.86584 14.9149 7.91846C14.7828 7.97108 14.6412 7.99609 14.4991 7.99194C14.3569 7.98778 14.2171 7.95457 14.0883 7.89432C13.9594 7.83408 13.8443 7.7481 13.75 7.64166L12.5 6.39687L11.2198 7.67604C11.0233 7.86579 10.7602 7.97078 10.487 7.96841C10.2139 7.96603 9.95266 7.85648 9.75953 7.66335C9.5664 7.47022 9.45685 7.20895 9.45447 6.93583C9.4521 6.66271 9.55709 6.39958 9.74684 6.20312L11.7635 4.1875C11.9588 3.99222 12.2238 3.88251 12.5 3.88251C12.7762 3.88251 13.0411 3.99222 13.2364 4.1875L15.2177 6.16875ZM12.5 14.5323C12.098 14.5323 11.7051 14.4131 11.3709 14.1898C11.0367 13.9665 10.7762 13.6491 10.6224 13.2777C10.4686 12.9064 10.4283 12.4977 10.5067 12.1035C10.5851 11.7093 10.7787 11.3472 11.0629 11.063C11.3471 10.7787 11.7093 10.5852 12.1035 10.5068C12.4977 10.4283 12.9063 10.4686 13.2777 10.6224C13.649 10.7762 13.9664 11.0367 14.1898 11.3709C14.4131 11.7051 14.5323 12.098 14.5323 12.5C14.5317 13.0388 14.3174 13.5554 13.9364 13.9364C13.5554 14.3174 13.0388 14.5317 12.5 14.5323Z" fill="#FFE8D6"/>
</svg>
