<svg width="23" height="23" viewBox="0 0 23 23" fill="none" xmlns="http://www.w3.org/2000/svg">
<g clip-path="url(#clip0_137_28)">
<path d="M23 7.49525V4.80659C23 4.58009 22.8862 4.36874 22.6971 4.24408C22.508 4.11938 22.2689 4.09804 22.0607 4.18725L12.6271 8.23022C12.3794 8.33642 12.2188 8.58003 12.2188 8.84956V18.1436C11.6395 17.7976 10.9347 17.6093 10.1973 17.6093C9.33247 17.6093 8.51202 17.8674 7.88711 18.3362C7.21414 18.8409 6.82812 19.5584 6.82812 20.3046C6.82812 21.0509 7.21414 21.7684 7.88711 22.2731C8.51202 22.7418 9.33247 23 10.1973 23C11.0621 23 11.8825 22.7418 12.5074 22.2731C13.1804 21.7684 13.5664 21.0509 13.5664 20.3046V11.9892L21.6523 8.52379V14.1007C21.0731 13.7547 20.3683 13.5664 19.6309 13.5664C18.7661 13.5664 17.9456 13.8245 17.3207 14.2932C16.6477 14.7979 16.2617 15.5154 16.2617 16.2617C16.2617 17.0079 16.6477 17.7254 17.3207 18.2301C17.9456 18.6989 18.7661 18.957 19.6309 18.957C20.4957 18.957 21.3161 18.6989 21.941 18.2301C22.614 17.7254 23 17.0079 23 16.2617C23 16.2617 23 7.49759 23 7.49525ZM10.1973 21.6523C9.10149 21.6523 8.17578 21.0352 8.17578 20.3046C8.17578 19.5741 9.10149 18.957 10.1973 18.957C11.293 18.957 12.2188 19.5741 12.2188 20.3046C12.2188 21.0352 11.293 21.6523 10.1973 21.6523ZM13.5664 10.523V9.29388L21.6523 5.82847V7.05758L13.5664 10.523ZM19.6309 17.6093C18.5351 17.6093 17.6094 16.9922 17.6094 16.2617C17.6094 15.5311 18.5351 14.914 19.6309 14.914C20.7266 14.914 21.6523 15.5311 21.6523 16.2617C21.6523 16.9922 20.7266 17.6093 19.6309 17.6093Z" fill="#FFE8D6"/>
<path d="M9.43359 7.412C9.43359 8.28128 8.60258 9.30905 8.28333 9.63087C8.02017 9.89402 8.02017 10.3206 8.28333 10.5838C8.54643 10.847 8.9731 10.847 9.23625 10.5838C9.39442 10.4257 10.7813 8.99312 10.7813 7.41205C10.7813 6.1452 10.0559 4.53556 8.62505 2.62787C7.59791 1.25842 6.58474 0.241078 6.54107 0.197414C6.12061 -0.223325 5.39063 0.0718569 5.39063 0.67372V9.96779C4.8114 9.6218 4.10662 9.43349 3.36914 9.43349C2.50435 9.43349 1.6839 9.69161 1.05899 10.1603C0.386014 10.6651 0 11.3826 0 12.1288C0 12.875 0.386014 13.5925 1.05899 14.0973C1.6839 14.566 2.50435 14.8241 3.36914 14.8241C4.23393 14.8241 5.05439 14.566 5.67929 14.0973C6.35227 13.5925 6.73828 12.875 6.73828 12.1288V2.41831C7.95346 3.86466 9.43359 5.96718 9.43359 7.412ZM3.36914 13.4765C2.27336 13.4765 1.34766 12.8593 1.34766 12.1288C1.34766 11.3983 2.27336 10.7811 3.36914 10.7811C4.46492 10.7811 5.39063 11.3983 5.39063 12.1288C5.39063 12.8593 4.46492 13.4765 3.36914 13.4765Z" fill="#FFE8D6"/>
</g>
<defs>
<clipPath id="clip0_137_28">
<rect width="23" height="23" fill="white"/>
</clipPath>
</defs>
</svg>
