<svg width="56" height="56" viewBox="0 0 56 56" fill="none" xmlns="http://www.w3.org/2000/svg">
<path d="M37.4267 3.86378H18.573C16.5213 3.86378 14.8522 5.53295 14.8522 7.58461V48.4154C14.8522 50.4672 16.5213 52.1363 18.5731 52.1363H37.4269C38.4178 52.1363 39.3514 51.7485 40.0554 51.0443C40.7597 50.3402 41.1475 49.4064 41.1475 48.4155V7.58461C41.1475 6.59367 40.7597 5.66005 40.0554 4.95578C39.3513 4.25152 38.4175 3.86367 37.4267 3.86378ZM18.573 6.05128H37.4267C37.8334 6.05128 38.2176 6.21162 38.5088 6.50267C38.7998 6.79383 38.9602 7.17806 38.9602 7.58472V44.6806H17.0397V7.58461C17.0397 6.73914 17.7275 6.05128 18.573 6.05128ZM38.5088 49.4974C38.2177 49.7885 37.8336 49.9487 37.4268 49.9487H18.5731C17.7276 49.9487 17.0397 49.2609 17.0397 48.4153V46.8681H38.96V48.4153C38.96 48.822 38.7997 49.2062 38.5086 49.4974H38.5088ZM54.076 38.6516C53.955 39.1524 53.5071 39.4888 53.0136 39.4888C52.9286 39.4888 52.8424 39.4788 52.7561 39.458C52.1689 39.3162 51.8079 38.7253 51.9496 38.1381C53.5513 31.5054 53.5513 24.494 51.9496 17.8621C51.8079 17.2749 52.1689 16.6841 52.7561 16.5422C53.3443 16.3999 53.9341 16.7615 54.076 17.3486C55.7587 24.3166 55.7588 31.683 54.076 38.6517V38.6516ZM44.3857 32.7551C43.7817 32.7551 43.2919 32.2653 43.2919 31.6613V24.3389C43.2919 23.7348 43.7817 23.2451 44.3857 23.2451C44.9897 23.2451 45.4794 23.7348 45.4794 24.3389V31.6613C45.4794 32.2653 44.9897 32.7551 44.3857 32.7551ZM47.2392 12.7883C49.22 17.6409 50.2244 22.7589 50.2244 28.0001C50.2244 33.2414 49.22 38.3593 47.2392 43.212C47.0662 43.6359 46.6575 43.8927 46.2262 43.8927C46.0884 43.8927 45.9486 43.8666 45.8133 43.8112C45.254 43.583 44.9857 42.9446 45.214 42.3853C49.0004 33.109 49.0004 22.8915 45.214 13.6151C44.9856 13.0559 45.2539 12.4175 45.8133 12.1891C46.3727 11.9607 47.0109 12.2291 47.2392 12.7883ZM4.05028 17.862C2.44859 24.494 2.44859 31.5054 4.05028 38.138C4.19203 38.7252 3.83098 39.316 3.24385 39.4579C3.15756 39.4787 3.07115 39.4886 2.98628 39.4886C2.49267 39.4886 2.04499 39.1523 1.92392 38.6515C0.241182 31.6828 0.241182 24.3164 1.92392 17.3484C2.06578 16.7613 2.65684 16.4001 3.24385 16.542C3.83098 16.6837 4.19203 17.2748 4.05028 17.862ZM10.7858 42.3851C11.0141 42.9443 10.7458 43.5828 10.1865 43.811C10.0512 43.8664 9.91114 43.8925 9.77365 43.8925C9.34239 43.8925 8.93365 43.6357 8.76051 43.2118C6.77984 38.3592 5.77556 33.2412 5.77556 27.9999C5.77556 22.7585 6.77984 17.6407 8.76051 12.7881C8.98878 12.2289 9.6272 11.9604 10.1865 12.1889C10.7458 12.4171 11.0141 13.0555 10.7858 13.6149C6.99924 22.8912 6.99924 33.1087 10.7858 42.3851ZM12.7077 24.3388V31.6612C12.7077 32.2652 12.2181 32.755 11.6141 32.755C11.0101 32.755 10.5204 32.2652 10.5204 31.6612V24.3388C10.5204 23.7348 11.01 23.245 11.614 23.245C12.218 23.245 12.7077 23.7347 12.7077 24.3388Z" fill="#FFE8D6"/>
</svg>
