<svg width="16" height="16" viewBox="0 0 16 16" fill="none" xmlns="http://www.w3.org/2000/svg">
<g clip-path="url(#clip0_139_105)">
<path d="M15.1573 8C15.1591 8.30356 15.0801 8.60213 14.9283 8.86503C14.7765 9.12793 14.5575 9.34567 14.2937 9.49588L3.43347 15.766C3.17145 15.9192 2.87338 16 2.56984 16C2.2663 16 1.96823 15.9192 1.70622 15.766C1.44243 15.6158 1.22339 15.398 1.0716 15.1351C0.919818 14.8723 0.840763 14.5737 0.842559 14.2701V1.72988C0.84077 1.42632 0.919825 1.12776 1.0716 0.864859C1.22338 0.601963 1.44241 0.38421 1.70618 0.23397C1.96821 0.0807516 2.26629 0 2.56982 0C2.87336 0 3.17144 0.0807516 3.43347 0.23397L14.2937 6.50413C14.5575 6.65434 14.7765 6.87208 14.9283 7.13498C15.0801 7.39787 15.1591 7.69644 15.1573 8Z" fill="#FFE8D6"/>
</g>
<defs>
<clipPath id="clip0_139_105">
<rect width="16" height="16" fill="white"/>
</clipPath>
</defs>
</svg>
