<svg width="87" height="39" viewBox="0 0 87 39" fill="none" xmlns="http://www.w3.org/2000/svg">
<path d="M7.52345 14.7436C7.58299 14.1227 7.70575 13.5205 7.89104 12.9329C7.96253 12.706 8.1892 12.0548 8.45793 12.0188C8.77081 11.9767 8.92391 12.7611 8.95633 12.9738C9.03035 13.4608 9.06345 13.7296 9.20667 14.1201C9.91724 16.0557 11.986 16.1195 13.6593 15.6626C14.6353 15.396 15.5598 15.0069 16.4329 14.4952C17.3529 13.9562 18.1628 13.231 18.8035 12.383C19.8464 11.0024 20.4451 9.09184 19.7766 7.41435C19.5481 6.84116 19.2094 6.35947 18.7607 5.96927C18.1826 5.46684 17.4995 5.13431 16.7113 4.97166C15.7643 4.77633 14.8336 4.77425 13.9191 4.96542C13.099 5.1367 12.3297 5.43878 11.611 5.87168C11.1317 6.16028 10.6692 6.49097 10.2522 6.86513C9.42567 7.60683 8.70161 8.44049 8.08 9.3661C6.83587 11.2189 5.90276 13.3029 5.21012 15.4205C4.76108 16.7936 4.39203 18.1884 4.10299 19.6047C3.43816 22.8635 3.13839 26.1988 3.23242 29.5251C3.25403 30.2947 3.25977 31.0809 3.20092 31.8489C3.18713 32.0286 3.13724 32.8232 2.90943 32.7679C2.6892 32.7145 2.36575 31.6119 2.29862 31.373C1.66705 29.1251 1.23173 26.8385 0.992646 24.5132C0.702072 21.6859 0.703911 18.8171 1.08529 15.9984C1.5046 12.8978 2.43035 9.83785 4.1115 7.19443C5.18491 5.50646 6.55548 4.07179 8.22322 2.89041C10.6759 1.15326 13.6308 0.0807222 16.6377 0.0430284C17.7438 0.0291534 18.8166 0.173222 19.8561 0.475235C21.4513 0.93866 22.9101 1.85233 23.9552 3.18595C24.9182 4.41504 25.4287 5.97135 25.4678 7.53391C25.5133 9.36633 24.9655 11.1865 24.0763 12.7736C23.4049 13.9719 22.5604 15.0628 21.5428 16.0462C19.2294 18.2824 16.1616 19.844 12.9368 20.1585C12.1363 20.2367 11.3149 20.2053 10.5384 19.9812C8.17862 19.2999 7.30483 17.0214 7.52345 14.7436Z" fill="#8F0D55"/>
<path d="M8.926 22.64V33H6.966V22.64H8.926ZM10.3585 29.094C10.3585 28.31 10.5125 27.6147 10.8205 27.008C11.1378 26.4013 11.5625 25.9347 12.0945 25.608C12.6358 25.2813 13.2378 25.118 13.9005 25.118C14.4792 25.118 14.9832 25.2347 15.4125 25.468C15.8512 25.7013 16.2012 25.9953 16.4625 26.35V25.244H18.4365V33H16.4625V31.866C16.2105 32.23 15.8605 32.5333 15.4125 32.776C14.9738 33.0093 14.4652 33.126 13.8865 33.126C13.2332 33.126 12.6358 32.958 12.0945 32.622C11.5625 32.286 11.1378 31.8147 10.8205 31.208C10.5125 30.592 10.3585 29.8873 10.3585 29.094ZM16.4625 29.122C16.4625 28.646 16.3692 28.24 16.1825 27.904C15.9958 27.5587 15.7438 27.2973 15.4265 27.12C15.1092 26.9333 14.7685 26.84 14.4045 26.84C14.0405 26.84 13.7045 26.9287 13.3965 27.106C13.0885 27.2833 12.8365 27.5447 12.6405 27.89C12.4538 28.226 12.3605 28.6273 12.3605 29.094C12.3605 29.5607 12.4538 29.9713 12.6405 30.326C12.8365 30.6713 13.0885 30.9373 13.3965 31.124C13.7138 31.3107 14.0498 31.404 14.4045 31.404C14.7685 31.404 15.1092 31.3153 15.4265 31.138C15.7438 30.9513 15.9958 30.69 16.1825 30.354C16.3692 30.0087 16.4625 29.598 16.4625 29.122ZM27.7708 25.244L22.9688 36.668H20.8828L22.5628 32.804L19.4548 25.244H21.6528L23.6548 30.662L25.6848 25.244H27.7708ZM31.1093 26.854V30.606C31.1093 30.8673 31.17 31.0587 31.2913 31.18C31.422 31.292 31.6367 31.348 31.9353 31.348H32.8453V33H31.6133C29.9613 33 29.1353 32.1973 29.1353 30.592V26.854H28.2113V25.244H29.1353V23.326H31.1093V25.244H32.8453V26.854H31.1093ZM38.6231 25.132C39.2111 25.132 39.7337 25.2627 40.1911 25.524C40.6484 25.776 41.0031 26.154 41.2551 26.658C41.5164 27.1527 41.6471 27.75 41.6471 28.45V33H39.6871V28.716C39.6871 28.1 39.5331 27.6287 39.2251 27.302C38.9171 26.966 38.4971 26.798 37.9651 26.798C37.4237 26.798 36.9944 26.966 36.6771 27.302C36.3691 27.6287 36.2151 28.1 36.2151 28.716V33H34.2551V22.64H36.2151V26.21C36.4671 25.874 36.8031 25.6127 37.2231 25.426C37.6431 25.23 38.1097 25.132 38.6231 25.132ZM44.5049 24.32C44.1596 24.32 43.8703 24.2127 43.6369 23.998C43.4129 23.774 43.3009 23.4987 43.3009 23.172C43.3009 22.8453 43.4129 22.5747 43.6369 22.36C43.8703 22.136 44.1596 22.024 44.5049 22.024C44.8503 22.024 45.1349 22.136 45.3589 22.36C45.5923 22.5747 45.7089 22.8453 45.7089 23.172C45.7089 23.4987 45.5923 23.774 45.3589 23.998C45.1349 24.2127 44.8503 24.32 44.5049 24.32ZM45.4709 25.244V33H43.5109V25.244H45.4709ZM51.7054 25.132C52.6294 25.132 53.3761 25.426 53.9454 26.014C54.5147 26.5927 54.7994 27.4047 54.7994 28.45V33H52.8394V28.716C52.8394 28.1 52.6854 27.6287 52.3774 27.302C52.0694 26.966 51.6494 26.798 51.1174 26.798C50.5761 26.798 50.1467 26.966 49.8294 27.302C49.5214 27.6287 49.3674 28.1 49.3674 28.716V33H47.4074V25.244H49.3674V26.21C49.6287 25.874 49.9601 25.6127 50.3614 25.426C50.7721 25.23 51.2201 25.132 51.7054 25.132ZM59.7013 25.118C60.2799 25.118 60.7886 25.2347 61.2273 25.468C61.6659 25.692 62.0113 25.986 62.2633 26.35V25.244H64.2373V33.056C64.2373 33.7747 64.0926 34.414 63.8033 34.974C63.5139 35.5433 63.0799 35.9913 62.5013 36.318C61.9226 36.654 61.2226 36.822 60.4013 36.822C59.2999 36.822 58.3946 36.5653 57.6853 36.052C56.9853 35.5387 56.5886 34.8387 56.4953 33.952H58.4413C58.5439 34.3067 58.7633 34.5867 59.0993 34.792C59.4446 35.0067 59.8599 35.114 60.3453 35.114C60.9146 35.114 61.3766 34.9413 61.7313 34.596C62.0859 34.26 62.2633 33.7467 62.2633 33.056V31.852C62.0113 32.216 61.6613 32.5193 61.2133 32.762C60.7746 33.0047 60.2706 33.126 59.7013 33.126C59.0479 33.126 58.4506 32.958 57.9093 32.622C57.3679 32.286 56.9386 31.8147 56.6213 31.208C56.3133 30.592 56.1593 29.8873 56.1593 29.094C56.1593 28.31 56.3133 27.6147 56.6213 27.008C56.9386 26.4013 57.3633 25.9347 57.8953 25.608C58.4366 25.2813 59.0386 25.118 59.7013 25.118ZM62.2633 29.122C62.2633 28.646 62.1699 28.24 61.9833 27.904C61.7966 27.5587 61.5446 27.2973 61.2273 27.12C60.9099 26.9333 60.5693 26.84 60.2053 26.84C59.8413 26.84 59.5053 26.9287 59.1973 27.106C58.8893 27.2833 58.6373 27.5447 58.4413 27.89C58.2546 28.226 58.1613 28.6273 58.1613 29.094C58.1613 29.5607 58.2546 29.9713 58.4413 30.326C58.6373 30.6713 58.8893 30.9373 59.1973 31.124C59.5146 31.3107 59.8506 31.404 60.2053 31.404C60.5693 31.404 60.9099 31.3153 61.2273 31.138C61.5446 30.9513 61.7966 30.69 61.9833 30.354C62.1699 30.0087 62.2633 29.598 62.2633 29.122ZM67.0195 33.098C66.6649 33.098 66.3709 32.9907 66.1375 32.776C65.9135 32.552 65.8015 32.2767 65.8015 31.95C65.8015 31.6233 65.9135 31.3527 66.1375 31.138C66.3709 30.914 66.6649 30.802 67.0195 30.802C67.3649 30.802 67.6495 30.914 67.8735 31.138C68.0975 31.3527 68.2095 31.6233 68.2095 31.95C68.2095 32.2767 68.0975 32.552 67.8735 32.776C67.6495 32.9907 67.3649 33.098 67.0195 33.098ZM69.2843 29.122C69.2843 28.3193 69.4476 27.6193 69.7743 27.022C70.1009 26.4153 70.5536 25.9487 71.1323 25.622C71.7109 25.286 72.3736 25.118 73.1203 25.118C74.0816 25.118 74.8749 25.3607 75.5003 25.846C76.1349 26.322 76.5596 26.994 76.7743 27.862H74.6603C74.5483 27.526 74.3569 27.2647 74.0863 27.078C73.8249 26.882 73.4983 26.784 73.1063 26.784C72.5463 26.784 72.1029 26.9893 71.7763 27.4C71.4496 27.8013 71.2863 28.3753 71.2863 29.122C71.2863 29.8593 71.4496 30.4333 71.7763 30.844C72.1029 31.2453 72.5463 31.446 73.1063 31.446C73.8996 31.446 74.4176 31.0913 74.6603 30.382H76.7743C76.5596 31.222 76.1349 31.8893 75.5003 32.384C74.8656 32.8787 74.0723 33.126 73.1203 33.126C72.3736 33.126 71.7109 32.9627 71.1323 32.636C70.5536 32.3 70.1009 31.8333 69.7743 31.236C69.4476 30.6293 69.2843 29.9247 69.2843 29.122ZM81.6541 33.126C80.9075 33.126 80.2355 32.9627 79.6381 32.636C79.0408 32.3 78.5695 31.8287 78.2241 31.222C77.8881 30.6153 77.7201 29.9153 77.7201 29.122C77.7201 28.3287 77.8928 27.6287 78.2381 27.022C78.5928 26.4153 79.0735 25.9487 79.6801 25.622C80.2868 25.286 80.9635 25.118 81.7101 25.118C82.4568 25.118 83.1335 25.286 83.7401 25.622C84.3468 25.9487 84.8228 26.4153 85.1681 27.022C85.5228 27.6287 85.7001 28.3287 85.7001 29.122C85.7001 29.9153 85.5181 30.6153 85.1541 31.222C84.7995 31.8287 84.3141 32.3 83.6981 32.636C83.0915 32.9627 82.4101 33.126 81.6541 33.126ZM81.6541 31.418C82.0088 31.418 82.3401 31.334 82.6481 31.166C82.9655 30.9887 83.2175 30.7273 83.4041 30.382C83.5908 30.0367 83.6841 29.6167 83.6841 29.122C83.6841 28.3847 83.4881 27.82 83.0961 27.428C82.7135 27.0267 82.2421 26.826 81.6821 26.826C81.1221 26.826 80.6508 27.0267 80.2681 27.428C79.8948 27.82 79.7081 28.3847 79.7081 29.122C79.7081 29.8593 79.8901 30.4287 80.2541 30.83C80.6275 31.222 81.0941 31.418 81.6541 31.418Z" fill="#FFE8D6"/>
</svg>
