<svg width="312" height="441" viewBox="0 0 312 441" fill="none" xmlns="http://www.w3.org/2000/svg">
<path d="M90.2814 211.484C90.9959 204.084 92.469 196.906 94.6925 189.903C95.5504 187.199 98.2704 179.437 101.495 179.007C105.25 178.506 107.087 187.855 107.476 190.391C108.364 196.195 108.761 199.398 110.48 204.053C119.007 227.123 143.832 227.884 163.912 222.438C175.623 219.261 186.717 214.623 197.195 208.524C208.235 202.099 217.953 193.456 225.641 183.348C238.157 166.894 245.341 144.122 237.319 124.128C234.577 117.296 230.513 111.555 225.128 106.904C218.191 100.915 209.994 96.952 200.535 95.0134C189.172 92.6853 178.003 92.6605 167.029 94.939C157.188 96.9805 147.956 100.581 139.332 105.741C133.581 109.181 128.03 113.122 123.026 117.582C113.108 126.422 104.419 136.358 96.96 147.39C82.0304 169.474 70.8331 194.313 62.5214 219.552C57.1329 235.918 52.7044 252.542 49.2359 269.423C41.258 308.264 37.6607 348.018 38.789 387.664C39.0483 396.837 39.1173 406.208 38.4111 415.361C38.2456 417.503 37.6469 426.973 34.9131 426.315C32.2704 425.678 28.389 412.536 27.5835 409.689C20.0046 382.896 14.7807 355.643 11.9118 327.928C8.42486 294.23 8.44693 260.036 13.0235 226.44C18.0552 189.484 29.1642 153.013 49.338 121.507C62.2189 101.388 78.6658 84.2879 98.6786 70.2072C128.11 49.5022 163.57 36.7188 199.652 36.2695C212.925 36.1041 225.799 37.8213 238.273 41.4209C257.415 46.9444 274.921 57.8344 287.462 73.7297C299.018 88.3791 305.145 106.929 305.614 125.553C306.16 147.393 299.586 169.088 288.916 188.004C280.859 202.287 270.725 215.289 258.513 227.01C230.753 253.663 193.939 272.276 155.241 276.025C145.636 276.956 135.779 276.581 126.461 273.911C98.1435 265.791 87.658 238.633 90.2814 211.484Z" fill="#8F0D55"/>
</svg>
