<svg width="390" height="844" viewBox="0 0 390 844" fill="none" xmlns="http://www.w3.org/2000/svg">
<g clip-path="url(#clip0_75_121)">
<rect width="390" height="844" rx="15" fill="url(#paint0_linear_75_121)"/>
<path d="M76.0825 58H390V844H89.5361V806.678C88 785 108 769.357 122.722 769.357H225.866C232 769.357 258.155 761.713 258.155 732.485C258.155 709.103 236.629 696.513 225.866 696.513H76.0825C55.633 696.513 41 679.5 42 660.54V94.8719C42 70.1407 62.1804 58 76.0825 58Z" fill="#3F4239"/>
<path d="M152.523 794.744C152.583 794.123 152.706 793.521 152.891 792.933C152.963 792.706 153.189 792.055 153.458 792.019C153.771 791.977 153.924 792.761 153.956 792.974C154.03 793.461 154.063 793.73 154.207 794.12C154.917 796.056 156.986 796.12 158.659 795.663C159.635 795.396 160.56 795.007 161.433 794.495C162.353 793.956 163.163 793.231 163.803 792.383C164.846 791.002 165.445 789.092 164.777 787.414C164.548 786.841 164.209 786.359 163.761 785.969C163.183 785.467 162.499 785.134 161.711 784.972C160.764 784.776 159.834 784.774 158.919 784.965C158.099 785.137 157.33 785.439 156.611 785.872C156.132 786.16 155.669 786.491 155.252 786.865C154.426 787.607 153.702 788.44 153.08 789.366C151.836 791.219 150.903 793.303 150.21 795.42C149.761 796.794 149.392 798.188 149.103 799.605C148.438 802.863 148.138 806.199 148.232 809.525C148.254 810.295 148.26 811.081 148.201 811.849C148.187 812.029 148.137 812.823 147.909 812.768C147.689 812.714 147.366 811.612 147.299 811.373C146.667 809.125 146.232 806.839 145.993 804.513C145.702 801.686 145.704 798.817 146.085 795.998C146.505 792.898 147.43 789.838 149.111 787.194C150.185 785.506 151.555 784.072 153.223 782.89C155.676 781.153 158.631 780.081 161.638 780.043C162.744 780.029 163.817 780.173 164.856 780.475C166.451 780.939 167.91 781.852 168.955 783.186C169.918 784.415 170.429 785.971 170.468 787.534C170.513 789.366 169.966 791.187 169.076 792.774C168.405 793.972 167.56 795.063 166.543 796.046C164.229 798.282 161.162 799.844 157.937 800.159C157.136 800.237 156.315 800.205 155.538 799.981C153.179 799.3 152.305 797.021 152.523 794.744Z" fill="#8F0D55"/>
<path d="M153.926 802.64V813H151.966V802.64H153.926ZM155.358 809.094C155.358 808.31 155.512 807.615 155.82 807.008C156.138 806.401 156.562 805.935 157.094 805.608C157.636 805.281 158.238 805.118 158.9 805.118C159.479 805.118 159.983 805.235 160.412 805.468C160.851 805.701 161.201 805.995 161.462 806.35V805.244H163.436V813H161.462V811.866C161.21 812.23 160.86 812.533 160.412 812.776C159.974 813.009 159.465 813.126 158.886 813.126C158.233 813.126 157.636 812.958 157.094 812.622C156.562 812.286 156.138 811.815 155.82 811.208C155.512 810.592 155.358 809.887 155.358 809.094ZM161.462 809.122C161.462 808.646 161.369 808.24 161.182 807.904C160.996 807.559 160.744 807.297 160.426 807.12C160.109 806.933 159.768 806.84 159.404 806.84C159.04 806.84 158.704 806.929 158.396 807.106C158.088 807.283 157.836 807.545 157.64 807.89C157.454 808.226 157.36 808.627 157.36 809.094C157.36 809.561 157.454 809.971 157.64 810.326C157.836 810.671 158.088 810.937 158.396 811.124C158.714 811.311 159.05 811.404 159.404 811.404C159.768 811.404 160.109 811.315 160.426 811.138C160.744 810.951 160.996 810.69 161.182 810.354C161.369 810.009 161.462 809.598 161.462 809.122ZM172.771 805.244L167.969 816.668H165.883L167.563 812.804L164.455 805.244H166.653L168.655 810.662L170.685 805.244H172.771ZM176.109 806.854V810.606C176.109 810.867 176.17 811.059 176.291 811.18C176.422 811.292 176.637 811.348 176.935 811.348H177.845V813H176.613C174.961 813 174.135 812.197 174.135 810.592V806.854H173.211V805.244H174.135V803.326H176.109V805.244H177.845V806.854H176.109ZM183.623 805.132C184.211 805.132 184.734 805.263 185.191 805.524C185.648 805.776 186.003 806.154 186.255 806.658C186.516 807.153 186.647 807.75 186.647 808.45V813H184.687V808.716C184.687 808.1 184.533 807.629 184.225 807.302C183.917 806.966 183.497 806.798 182.965 806.798C182.424 806.798 181.994 806.966 181.677 807.302C181.369 807.629 181.215 808.1 181.215 808.716V813H179.255V802.64H181.215V806.21C181.467 805.874 181.803 805.613 182.223 805.426C182.643 805.23 183.11 805.132 183.623 805.132ZM189.505 804.32C189.16 804.32 188.87 804.213 188.637 803.998C188.413 803.774 188.301 803.499 188.301 803.172C188.301 802.845 188.413 802.575 188.637 802.36C188.87 802.136 189.16 802.024 189.505 802.024C189.85 802.024 190.135 802.136 190.359 802.36C190.592 802.575 190.709 802.845 190.709 803.172C190.709 803.499 190.592 803.774 190.359 803.998C190.135 804.213 189.85 804.32 189.505 804.32ZM190.471 805.244V813H188.511V805.244H190.471ZM196.705 805.132C197.629 805.132 198.376 805.426 198.945 806.014C199.515 806.593 199.799 807.405 199.799 808.45V813H197.839V808.716C197.839 808.1 197.685 807.629 197.377 807.302C197.069 806.966 196.649 806.798 196.117 806.798C195.576 806.798 195.147 806.966 194.829 807.302C194.521 807.629 194.367 808.1 194.367 808.716V813H192.407V805.244H194.367V806.21C194.629 805.874 194.96 805.613 195.361 805.426C195.772 805.23 196.22 805.132 196.705 805.132ZM204.701 805.118C205.28 805.118 205.789 805.235 206.227 805.468C206.666 805.692 207.011 805.986 207.263 806.35V805.244H209.237V813.056C209.237 813.775 209.093 814.414 208.803 814.974C208.514 815.543 208.08 815.991 207.501 816.318C206.923 816.654 206.223 816.822 205.401 816.822C204.3 816.822 203.395 816.565 202.685 816.052C201.985 815.539 201.589 814.839 201.495 813.952H203.441C203.544 814.307 203.763 814.587 204.099 814.792C204.445 815.007 204.86 815.114 205.345 815.114C205.915 815.114 206.377 814.941 206.731 814.596C207.086 814.26 207.263 813.747 207.263 813.056V811.852C207.011 812.216 206.661 812.519 206.213 812.762C205.775 813.005 205.271 813.126 204.701 813.126C204.048 813.126 203.451 812.958 202.909 812.622C202.368 812.286 201.939 811.815 201.621 811.208C201.313 810.592 201.159 809.887 201.159 809.094C201.159 808.31 201.313 807.615 201.621 807.008C201.939 806.401 202.363 805.935 202.895 805.608C203.437 805.281 204.039 805.118 204.701 805.118ZM207.263 809.122C207.263 808.646 207.17 808.24 206.983 807.904C206.797 807.559 206.545 807.297 206.227 807.12C205.91 806.933 205.569 806.84 205.205 806.84C204.841 806.84 204.505 806.929 204.197 807.106C203.889 807.283 203.637 807.545 203.441 807.89C203.255 808.226 203.161 808.627 203.161 809.094C203.161 809.561 203.255 809.971 203.441 810.326C203.637 810.671 203.889 810.937 204.197 811.124C204.515 811.311 204.851 811.404 205.205 811.404C205.569 811.404 205.91 811.315 206.227 811.138C206.545 810.951 206.797 810.69 206.983 810.354C207.17 810.009 207.263 809.598 207.263 809.122ZM212.02 813.098C211.665 813.098 211.371 812.991 211.138 812.776C210.914 812.552 210.802 812.277 210.802 811.95C210.802 811.623 210.914 811.353 211.138 811.138C211.371 810.914 211.665 810.802 212.02 810.802C212.365 810.802 212.65 810.914 212.874 811.138C213.098 811.353 213.21 811.623 213.21 811.95C213.21 812.277 213.098 812.552 212.874 812.776C212.65 812.991 212.365 813.098 212.02 813.098ZM214.284 809.122C214.284 808.319 214.448 807.619 214.774 807.022C215.101 806.415 215.554 805.949 216.132 805.622C216.711 805.286 217.374 805.118 218.12 805.118C219.082 805.118 219.875 805.361 220.5 805.846C221.135 806.322 221.56 806.994 221.774 807.862H219.66C219.548 807.526 219.357 807.265 219.086 807.078C218.825 806.882 218.498 806.784 218.106 806.784C217.546 806.784 217.103 806.989 216.776 807.4C216.45 807.801 216.286 808.375 216.286 809.122C216.286 809.859 216.45 810.433 216.776 810.844C217.103 811.245 217.546 811.446 218.106 811.446C218.9 811.446 219.418 811.091 219.66 810.382H221.774C221.56 811.222 221.135 811.889 220.5 812.384C219.866 812.879 219.072 813.126 218.12 813.126C217.374 813.126 216.711 812.963 216.132 812.636C215.554 812.3 215.101 811.833 214.774 811.236C214.448 810.629 214.284 809.925 214.284 809.122ZM226.654 813.126C225.907 813.126 225.235 812.963 224.638 812.636C224.041 812.3 223.569 811.829 223.224 811.222C222.888 810.615 222.72 809.915 222.72 809.122C222.72 808.329 222.893 807.629 223.238 807.022C223.593 806.415 224.073 805.949 224.68 805.622C225.287 805.286 225.963 805.118 226.71 805.118C227.457 805.118 228.133 805.286 228.74 805.622C229.347 805.949 229.823 806.415 230.168 807.022C230.523 807.629 230.7 808.329 230.7 809.122C230.7 809.915 230.518 810.615 230.154 811.222C229.799 811.829 229.314 812.3 228.698 812.636C228.091 812.963 227.41 813.126 226.654 813.126ZM226.654 811.418C227.009 811.418 227.34 811.334 227.648 811.166C227.965 810.989 228.217 810.727 228.404 810.382C228.591 810.037 228.684 809.617 228.684 809.122C228.684 808.385 228.488 807.82 228.096 807.428C227.713 807.027 227.242 806.826 226.682 806.826C226.122 806.826 225.651 807.027 225.268 807.428C224.895 807.82 224.708 808.385 224.708 809.122C224.708 809.859 224.89 810.429 225.254 810.83C225.627 811.222 226.094 811.418 226.654 811.418Z" fill="#FFE8D6"/>
</g>
<defs>
<linearGradient id="paint0_linear_75_121" x1="195" y1="0" x2="195" y2="844" gradientUnits="userSpaceOnUse">
<stop stop-color="#DDBBA7"/>
<stop offset="1" stop-color="#BB8C75"/>
</linearGradient>
<clipPath id="clip0_75_121">
<rect width="390" height="844" rx="15" fill="white"/>
</clipPath>
</defs>
</svg>
