<svg width="16" height="16" viewBox="0 0 16 16" fill="none" xmlns="http://www.w3.org/2000/svg">
<g clip-path="url(#clip0_53_173)">
<path d="M12.5054 11.2543L8.52814 8.14386L12.5054 5.03446C12.6524 4.91888 12.7386 4.74248 12.7386 4.55492C12.7386 4.36736 12.6524 4.19096 12.5054 4.07538L7.91578 0.486441C7.73228 0.343492 7.4839 0.317132 7.27403 0.418515C7.06519 0.520911 6.93237 0.732801 6.93237 0.964966V6.89483L4.53062 5.01925C4.26601 4.81243 3.8838 4.85907 3.67698 5.12368C3.47016 5.38829 3.5168 5.7705 3.78141 5.97732L6.5532 8.14386L3.78039 10.3124C3.51578 10.5193 3.46915 10.9015 3.67597 11.1661C3.7956 11.3192 3.97505 11.3993 4.15551 11.3993C4.28629 11.3993 4.41809 11.3567 4.52961 11.2705L6.93237 9.39188V15.3217C6.93237 15.8185 7.52242 16.1085 7.91578 15.8013L12.5054 12.2123C12.6524 12.0968 12.7386 11.9204 12.7386 11.7328C12.7386 11.5452 12.6524 11.3688 12.5054 11.2543ZM8.14896 2.214L11.1428 4.55492L8.14896 6.89584V2.214ZM8.14896 14.0747V9.39289L11.1428 11.7338L8.14896 14.0747Z" fill="#D3AE99"/>
</g>
<defs>
<clipPath id="clip0_53_173">
<rect width="15.7143" height="15.7143" fill="white" transform="translate(0.285767 0.285706)"/>
</clipPath>
</defs>
</svg>
