<svg width="103" height="51" viewBox="0 0 103 51" fill="none" xmlns="http://www.w3.org/2000/svg">
<path d="M1 50C4.8524 42.0726 12.9592 22.8486 14.5672 9.37196C16.5771 -7.47381 23.1095 3.92186 24.1144 18.7858C25.1194 33.6497 29.1393 13.3357 29.1393 11.3538C29.1393 9.40208 34.4999 -5.04308 36.1026 17.7057C36.1517 18.4017 36.2975 19.124 36.6457 19.7287C38.3248 22.6448 41.3865 23.7476 43.209 9.37196C45.7214 -10.4466 50.2438 14.8221 53.2587 26.7132C56.2736 38.6043 59 42.5 62.3035 32.1633C65.2033 23.0898 69.3187 14.0126 70.5907 9.42533C70.7814 8.73735 71.0298 8.06419 71.4427 7.48183C74.7715 2.78785 80.5173 -0.239341 80.8955 20.2722C81.398 47.5227 87.9304 35.6315 92.9552 25.2268C97.9801 14.8221 99.9901 20.7676 102 25.2268" stroke="#EFB296" stroke-width="2" stroke-linecap="round"/>
</svg>
