<svg width="382" height="382" viewBox="0 0 382 382" fill="none" xmlns="http://www.w3.org/2000/svg">
<g filter="url(#filter0_dd_2_35)">
<circle cx="191" cy="191.199" r="100.508" transform="rotate(180 191 191.199)" fill="url(#paint0_linear_2_35)"/>
</g>
<path d="M162.851 186.123L159.197 195.853H157.349L153.681 186.123H155.389L158.273 194.215L161.171 186.123H162.851ZM164.997 187.117C164.708 187.117 164.465 187.019 164.269 186.823C164.073 186.627 163.975 186.385 163.975 186.095C163.975 185.806 164.073 185.563 164.269 185.367C164.465 185.171 164.708 185.073 164.997 185.073C165.277 185.073 165.515 185.171 165.711 185.367C165.907 185.563 166.005 185.806 166.005 186.095C166.005 186.385 165.907 186.627 165.711 186.823C165.515 187.019 165.277 187.117 164.997 187.117ZM165.781 188.139V195.853H164.185V188.139H165.781ZM169.473 189.287C169.744 188.914 170.112 188.611 170.579 188.377C171.055 188.135 171.582 188.013 172.161 188.013C172.842 188.013 173.458 188.177 174.009 188.503C174.56 188.83 174.994 189.297 175.311 189.903C175.628 190.501 175.787 191.187 175.787 191.961C175.787 192.736 175.628 193.431 175.311 194.047C174.994 194.654 174.555 195.13 173.995 195.475C173.444 195.811 172.833 195.979 172.161 195.979C171.564 195.979 171.032 195.863 170.565 195.629C170.108 195.396 169.744 195.097 169.473 194.733V195.853H167.877V185.493H169.473V189.287ZM174.163 191.961C174.163 191.429 174.051 190.972 173.827 190.589C173.612 190.197 173.323 189.903 172.959 189.707C172.604 189.502 172.222 189.399 171.811 189.399C171.41 189.399 171.027 189.502 170.663 189.707C170.308 189.913 170.019 190.211 169.795 190.603C169.58 190.995 169.473 191.457 169.473 191.989C169.473 192.521 169.58 192.988 169.795 193.389C170.019 193.781 170.308 194.08 170.663 194.285C171.027 194.491 171.41 194.593 171.811 194.593C172.222 194.593 172.604 194.491 172.959 194.285C173.323 194.071 173.612 193.763 173.827 193.361C174.051 192.96 174.163 192.493 174.163 191.961ZM176.833 191.961C176.833 191.187 176.992 190.501 177.309 189.903C177.636 189.306 178.074 188.844 178.625 188.517C179.185 188.181 179.801 188.013 180.473 188.013C181.08 188.013 181.607 188.135 182.055 188.377C182.512 188.611 182.876 188.905 183.147 189.259V188.139H184.757V195.853H183.147V194.705C182.876 195.069 182.508 195.373 182.041 195.615C181.574 195.858 181.042 195.979 180.445 195.979C179.782 195.979 179.176 195.811 178.625 195.475C178.074 195.13 177.636 194.654 177.309 194.047C176.992 193.431 176.833 192.736 176.833 191.961ZM183.147 191.989C183.147 191.457 183.035 190.995 182.811 190.603C182.596 190.211 182.312 189.913 181.957 189.707C181.602 189.502 181.22 189.399 180.809 189.399C180.398 189.399 180.016 189.502 179.661 189.707C179.306 189.903 179.017 190.197 178.793 190.589C178.578 190.972 178.471 191.429 178.471 191.961C178.471 192.493 178.578 192.96 178.793 193.361C179.017 193.763 179.306 194.071 179.661 194.285C180.025 194.491 180.408 194.593 180.809 194.593C181.22 194.593 181.602 194.491 181.957 194.285C182.312 194.08 182.596 193.781 182.811 193.389C183.035 192.988 183.147 192.521 183.147 191.989ZM188.449 189.259C188.683 188.867 188.991 188.564 189.373 188.349C189.765 188.125 190.227 188.013 190.759 188.013V189.665H190.353C189.728 189.665 189.252 189.824 188.925 190.141C188.608 190.459 188.449 191.009 188.449 191.793V195.853H186.853V188.139H188.449V189.259ZM191.694 191.961C191.694 191.187 191.853 190.501 192.17 189.903C192.497 189.306 192.936 188.844 193.486 188.517C194.046 188.181 194.662 188.013 195.334 188.013C195.941 188.013 196.468 188.135 196.916 188.377C197.374 188.611 197.738 188.905 198.008 189.259V188.139H199.618V195.853H198.008V194.705C197.738 195.069 197.369 195.373 196.902 195.615C196.436 195.858 195.904 195.979 195.306 195.979C194.644 195.979 194.037 195.811 193.486 195.475C192.936 195.13 192.497 194.654 192.17 194.047C191.853 193.431 191.694 192.736 191.694 191.961ZM198.008 191.989C198.008 191.457 197.896 190.995 197.672 190.603C197.458 190.211 197.173 189.913 196.818 189.707C196.464 189.502 196.081 189.399 195.67 189.399C195.26 189.399 194.877 189.502 194.522 189.707C194.168 189.903 193.878 190.197 193.654 190.589C193.44 190.972 193.332 191.429 193.332 191.961C193.332 192.493 193.44 192.96 193.654 193.361C193.878 193.763 194.168 194.071 194.522 194.285C194.886 194.491 195.269 194.593 195.67 194.593C196.081 194.593 196.464 194.491 196.818 194.285C197.173 194.08 197.458 193.781 197.672 193.389C197.896 192.988 198.008 192.521 198.008 191.989ZM203.577 189.441V193.711C203.577 194.001 203.642 194.211 203.773 194.341C203.913 194.463 204.146 194.523 204.473 194.523H205.453V195.853H204.193C203.474 195.853 202.923 195.685 202.541 195.349C202.158 195.013 201.967 194.467 201.967 193.711V189.441H201.057V188.139H201.967V186.221H203.577V188.139H205.453V189.441H203.577ZM207.736 187.117C207.446 187.117 207.204 187.019 207.008 186.823C206.812 186.627 206.714 186.385 206.714 186.095C206.714 185.806 206.812 185.563 207.008 185.367C207.204 185.171 207.446 185.073 207.736 185.073C208.016 185.073 208.254 185.171 208.45 185.367C208.646 185.563 208.744 185.806 208.744 186.095C208.744 186.385 208.646 186.627 208.45 186.823C208.254 187.019 208.016 187.117 207.736 187.117ZM208.52 188.139V195.853H206.924V188.139H208.52ZM213.961 195.979C213.233 195.979 212.575 195.816 211.987 195.489C211.399 195.153 210.937 194.687 210.601 194.089C210.265 193.483 210.097 192.783 210.097 191.989C210.097 191.205 210.27 190.51 210.615 189.903C210.96 189.297 211.432 188.83 212.029 188.503C212.626 188.177 213.294 188.013 214.031 188.013C214.768 188.013 215.436 188.177 216.033 188.503C216.63 188.83 217.102 189.297 217.447 189.903C217.792 190.51 217.965 191.205 217.965 191.989C217.965 192.773 217.788 193.469 217.433 194.075C217.078 194.682 216.593 195.153 215.977 195.489C215.37 195.816 214.698 195.979 213.961 195.979ZM213.961 194.593C214.372 194.593 214.754 194.495 215.109 194.299C215.473 194.103 215.767 193.809 215.991 193.417C216.215 193.025 216.327 192.549 216.327 191.989C216.327 191.429 216.22 190.958 216.005 190.575C215.79 190.183 215.506 189.889 215.151 189.693C214.796 189.497 214.414 189.399 214.003 189.399C213.592 189.399 213.21 189.497 212.855 189.693C212.51 189.889 212.234 190.183 212.029 190.575C211.824 190.958 211.721 191.429 211.721 191.989C211.721 192.82 211.931 193.464 212.351 193.921C212.78 194.369 213.317 194.593 213.961 194.593ZM223.435 188.013C224.042 188.013 224.583 188.139 225.059 188.391C225.544 188.643 225.922 189.017 226.193 189.511C226.464 190.006 226.599 190.603 226.599 191.303V195.853H225.017V191.541C225.017 190.851 224.844 190.323 224.499 189.959C224.154 189.586 223.682 189.399 223.085 189.399C222.488 189.399 222.012 189.586 221.657 189.959C221.312 190.323 221.139 190.851 221.139 191.541V195.853H219.543V188.139H221.139V189.021C221.4 188.704 221.732 188.457 222.133 188.279C222.544 188.102 222.978 188.013 223.435 188.013Z" fill="#FFE8D6"/>
<rect x="191.933" y="86.3353" width="1.86702" height="9.33508" rx="0.933508" transform="rotate(-180 191.933 86.3353)" fill="#606655"/>
<g filter="url(#filter1_d_2_35)">
<path d="M191.933 85.2771C191.933 85.7239 191.571 86.0861 191.124 86.0861V86.0861C190.678 86.0861 190.315 85.7239 190.315 85.277L190.315 77.809C190.315 77.3622 190.678 76.9999 191.124 76.9999V76.9999C191.571 76.9999 191.933 77.3622 191.933 77.809L191.933 85.2771Z" fill="#606655"/>
</g>
<rect x="298.664" y="194.933" width="1.86702" height="9.33508" rx="0.933508" transform="rotate(-90 298.664 194.933)" fill="#535960"/>
<rect x="298.913" y="194.933" width="1.61808" height="9.08615" rx="0.80904" transform="rotate(-90 298.913 194.933)" fill="#15171C"/>
<rect x="74" y="194.933" width="1.86702" height="9.33508" rx="0.933508" transform="rotate(-90 74 194.933)" fill="#5C6151"/>
<g filter="url(#filter2_d_2_35)">
<rect x="74.2492" y="194.933" width="1.61808" height="9.08615" rx="0.80904" transform="rotate(-90 74.2492 194.933)" fill="#5C6151"/>
</g>
<rect x="267.79" y="118.53" width="1.86702" height="9.33508" rx="0.933508" transform="rotate(-135 267.79 118.53)" fill="#606655"/>
<g filter="url(#filter3_d_2_35)">
<rect x="267.966" y="118.354" width="1.61808" height="9.08615" rx="0.80904" transform="rotate(-135 267.966 118.354)" fill="#606655"/>
</g>
<rect x="108.928" y="277.392" width="1.86702" height="9.33508" rx="0.933508" transform="rotate(-135 108.928 277.392)" fill="#3F4239"/>
<rect x="266.47" y="270.79" width="1.86702" height="9.33508" rx="0.933508" transform="rotate(-45 266.47 270.79)" fill="#535960"/>
<rect x="266.646" y="270.966" width="1.61808" height="9.08615" rx="0.80904" transform="rotate(-45 266.646 270.966)" fill="#15171C"/>
<rect x="107.608" y="111.928" width="1.86702" height="9.33508" rx="0.933508" transform="rotate(-45 107.608 111.928)" fill="#6A705D"/>
<g filter="url(#filter4_d_2_35)">
<rect x="107.784" y="112.104" width="1.61808" height="9.08615" rx="0.80904" transform="rotate(-45 107.784 112.104)" fill="#6A705D"/>
</g>
<defs>
<filter id="filter0_dd_2_35" x="0.492249" y="0.691437" width="381.015" height="381.015" filterUnits="userSpaceOnUse" color-interpolation-filters="sRGB">
<feFlood flood-opacity="0" result="BackgroundImageFix"/>
<feColorMatrix in="SourceAlpha" type="matrix" values="0 0 0 0 0 0 0 0 0 0 0 0 0 0 0 0 0 0 127 0" result="hardAlpha"/>
<feOffset dx="-20" dy="-20"/>
<feGaussianBlur stdDeviation="35"/>
<feColorMatrix type="matrix" values="0 0 0 0 0.321569 0 0 0 0 0.333333 0 0 0 0 0.294118 0 0 0 0.25 0"/>
<feBlend mode="normal" in2="BackgroundImageFix" result="effect1_dropShadow_2_35"/>
<feColorMatrix in="SourceAlpha" type="matrix" values="0 0 0 0 0 0 0 0 0 0 0 0 0 0 0 0 0 0 127 0" result="hardAlpha"/>
<feOffset dx="20" dy="20"/>
<feGaussianBlur stdDeviation="35"/>
<feColorMatrix type="matrix" values="0 0 0 0 0.32037 0 0 0 0 0.333333 0 0 0 0 0.294444 0 0 0 0.25 0"/>
<feBlend mode="normal" in2="effect1_dropShadow_2_35" result="effect2_dropShadow_2_35"/>
<feBlend mode="normal" in="SourceGraphic" in2="effect2_dropShadow_2_35" result="shape"/>
</filter>
<filter id="filter1_d_2_35" x="180.315" y="66.9999" width="21.6181" height="29.0862" filterUnits="userSpaceOnUse" color-interpolation-filters="sRGB">
<feFlood flood-opacity="0" result="BackgroundImageFix"/>
<feColorMatrix in="SourceAlpha" type="matrix" values="0 0 0 0 0 0 0 0 0 0 0 0 0 0 0 0 0 0 127 0" result="hardAlpha"/>
<feOffset/>
<feGaussianBlur stdDeviation="5"/>
<feColorMatrix type="matrix" values="0 0 0 0 0.376471 0 0 0 0 0.4 0 0 0 0 0.333333 0 0 0 1 0"/>
<feBlend mode="normal" in2="BackgroundImageFix" result="effect1_dropShadow_2_35"/>
<feBlend mode="normal" in="SourceGraphic" in2="effect1_dropShadow_2_35" result="shape"/>
</filter>
<filter id="filter2_d_2_35" x="64.2492" y="183.315" width="29.0861" height="21.6181" filterUnits="userSpaceOnUse" color-interpolation-filters="sRGB">
<feFlood flood-opacity="0" result="BackgroundImageFix"/>
<feColorMatrix in="SourceAlpha" type="matrix" values="0 0 0 0 0 0 0 0 0 0 0 0 0 0 0 0 0 0 127 0" result="hardAlpha"/>
<feOffset/>
<feGaussianBlur stdDeviation="5"/>
<feColorMatrix type="matrix" values="0 0 0 0 0.0392157 0 0 0 0 0.541176 0 0 0 0 0.854902 0 0 0 0.25 0"/>
<feBlend mode="normal" in2="BackgroundImageFix" result="effect1_dropShadow_2_35"/>
<feBlend mode="normal" in="SourceGraphic" in2="effect1_dropShadow_2_35" result="shape"/>
</filter>
<filter id="filter3_d_2_35" x="257.157" y="101.12" width="26.8987" height="26.8988" filterUnits="userSpaceOnUse" color-interpolation-filters="sRGB">
<feFlood flood-opacity="0" result="BackgroundImageFix"/>
<feColorMatrix in="SourceAlpha" type="matrix" values="0 0 0 0 0 0 0 0 0 0 0 0 0 0 0 0 0 0 127 0" result="hardAlpha"/>
<feOffset/>
<feGaussianBlur stdDeviation="5"/>
<feColorMatrix type="matrix" values="0 0 0 0 0.376471 0 0 0 0 0.4 0 0 0 0 0.333333 0 0 0 1 0"/>
<feBlend mode="normal" in2="BackgroundImageFix" result="effect1_dropShadow_2_35"/>
<feBlend mode="normal" in="SourceGraphic" in2="effect1_dropShadow_2_35" result="shape"/>
</filter>
<filter id="filter4_d_2_35" x="98.1194" y="101.295" width="26.8987" height="26.8988" filterUnits="userSpaceOnUse" color-interpolation-filters="sRGB">
<feFlood flood-opacity="0" result="BackgroundImageFix"/>
<feColorMatrix in="SourceAlpha" type="matrix" values="0 0 0 0 0 0 0 0 0 0 0 0 0 0 0 0 0 0 127 0" result="hardAlpha"/>
<feOffset/>
<feGaussianBlur stdDeviation="5"/>
<feColorMatrix type="matrix" values="0 0 0 0 0.415686 0 0 0 0 0.439216 0 0 0 0 0.364706 0 0 0 1 0"/>
<feBlend mode="normal" in2="BackgroundImageFix" result="effect1_dropShadow_2_35"/>
<feBlend mode="normal" in="SourceGraphic" in2="effect1_dropShadow_2_35" result="shape"/>
</filter>
<linearGradient id="paint0_linear_2_35" x1="257.244" y1="268.864" x2="122.472" y2="118.103" gradientUnits="userSpaceOnUse">
<stop stop-color="#202428"/>
<stop offset="1" stop-color="#131314"/>
</linearGradient>
</defs>
</svg>
